<?xml version="1.0" encoding="UTF-8" standalone="no"?>
<!-- Created with Inkscape (http://www.inkscape.org/) -->
<svg
   xmlns:svg="http://www.w3.org/2000/svg"
   xmlns="http://www.w3.org/2000/svg"
   xmlns:xlink="http://www.w3.org/1999/xlink"
   version="1.0"
   width="531.49603"
   height="531.49603"
   id="svg2">
  <defs
     id="defs4">
    <linearGradient
       id="linearGradient4444">
      <stop
         id="stop4446"
         style="stop-color:#ffffff;stop-opacity:0.12352941"
         offset="0" />
      <stop
         id="stop4448"
         style="stop-color:#ffffff;stop-opacity:0.1882353"
         offset="1" />
    </linearGradient>
    <linearGradient
       x1="786.95844"
       y1="234.28935"
       x2="965.81787"
       y2="92.289352"
       id="linearGradient2416"
       xlink:href="#linearGradient4444"
       gradientUnits="userSpaceOnUse"
       gradientTransform="translate(-4e-5,520.86482)" />
  </defs>
  <g
     transform="translate(0,-520.86482)"
     id="layer1">
    <g
       id="g3218">
      <path
         d="M 233.12304,579.70659 C 126.7118,579.70659 40.46679,665.98285 40.46679,772.39409 C 40.46679,878.80534 126.7118,965.05034 233.12304,965.05034 C 249.05348,965.05034 264.53629,963.10143 279.34179,959.45659 C 301.82588,980.57197 332.09442,993.51909 365.37304,993.51909 C 434.7851,993.51909 491.02924,937.24366 491.02924,867.83159 C 491.02924,820.08594 464.42845,778.57318 425.21679,757.30034 C 417.52626,657.93545 334.46072,579.70659 233.12304,579.70659 L 233.12304,579.70659 z"
         id="path4454"
         style="fill:#2b5d0a;fill-opacity:1;stroke:none" />
      <path
         d="M 233.12304,597.73784 C 136.66353,597.73784 58.46679,675.93459 58.46679,772.39409 C 58.46679,868.8536 136.66353,947.01909 233.12304,947.01909 C 248.69275,947.01909 263.78829,944.9979 278.15429,941.17534 C 299.05299,965.99721 330.38515,981.76909 365.37304,981.76909 C 428.29358,981.76909 479.27924,930.75214 479.27924,867.83159 C 479.27924,819.7904 449.5367,778.70672 407.46679,761.95659 C 402.0752,670.34938 326.08328,597.73784 233.12304,597.73784 z"
         id="path4452"
         style="fill:#2b5d0a;fill-opacity:1;stroke:#ffffff;stroke-width:7.08661413;stroke-linecap:round;stroke-linejoin:round;stroke-miterlimit:4;stroke-dashoffset:0;stroke-opacity:1" />
      <g
         id="text4456"
         style="font-size:397.23168945px;font-style:normal;font-variant:normal;font-weight:900;font-stretch:normal;text-align:start;line-height:125%;writing-mode:lr-tb;text-anchor:start;fill:#3ca000;fill-opacity:1;stroke:#ffffff;stroke-width:8.85826778;stroke-miterlimit:4;stroke-opacity:1;font-family:Whitney HTF;-inkscape-font-specification:Whitney HTF Heavy">
        <path
           d="M 332.05501,861.13254 C 312.85548,827.89749 293.65594,794.66244 274.45641,761.42739 C 292.72907,730.97296 311.00173,700.51853 329.27439,670.0641 C 307.42665,670.0641 285.5789,670.0641 263.73116,670.0641 C 255.5217,685.68855 247.31225,701.31299 239.10279,716.93744 C 231.02575,700.38612 222.9487,683.8348 214.87166,667.28348 C 190.11088,670.0641 165.35011,672.84472 140.58933,675.62534 C 158.86199,707.40388 177.13465,739.18241 195.40731,770.96095 C 176.34019,802.8719 157.27306,834.78284 138.20594,866.69379 C 160.05368,866.69379 181.90143,866.69379 203.74917,866.69379 C 212.75309,849.61283 221.75701,832.53186 230.76093,815.4509 C 239.89726,833.45874 249.03358,851.46657 258.16991,869.47441 C 282.79828,866.69379 307.42664,863.91316 332.05501,861.13254 L 332.05501,861.13254 z"
           id="path4656"
           style="fill:#3ca000" />
      </g>
      <g
         transform="matrix(0.9886136,0.1504763,-0.1504763,0.9886136,0,0)"
         id="text4408"
         style="font-size:195.92774963px;font-style:normal;font-variant:normal;font-weight:900;font-stretch:condensed;text-align:start;line-height:125%;writing-mode:lr-tb;text-anchor:start;fill:#003cff;fill-opacity:1;stroke:#ffffff;stroke-width:7.08661413;stroke-miterlimit:4;stroke-opacity:1;font-family:Whitney HTF;-inkscape-font-specification:Whitney HTF Heavy Condensed">
        <path
           d="M 553.01322,869.52966 C 551.38049,859.34142 549.74775,849.15317 548.11502,838.96493 C 535.2491,838.96493 522.38318,838.96493 509.51726,838.96493 C 518.39944,827.85277 527.84454,817.17256 536.22795,805.67644 C 546.42589,790.95376 552.60922,771.30227 545.36587,754.03374 C 539.17793,739.33678 522.67777,732.32291 507.56361,731.87274 C 493.00291,731.13235 478.3264,735.19063 466.0213,742.96034 C 467.58872,753.2792 469.15614,763.59806 470.72356,773.91692 C 479.25663,768.02441 489.92325,761.91918 500.6209,765.02364 C 508.95055,767.29787 511.59382,777.4323 508.49399,784.7339 C 504.64908,795.24186 496.25673,803.02177 489.65947,811.79697 C 481.45354,821.96322 473.2476,832.12946 465.04166,842.29571 C 465.04166,851.37369 465.04166,860.45168 465.04166,869.52966 C 494.36551,869.52966 523.68937,869.52966 553.01322,869.52966 L 553.01322,869.52966 z"
           id="path4660"
           style="fill:#003cff;fill-opacity:1;stroke:#ffffff" />
      </g>
      <path
         d="M 233.12304,579.70659 C 186.71134,579.70659 144.12974,596.11958 110.87304,623.45659 C 185.7626,666.34258 274.73205,731.07827 338.77929,820.92534 C 381.41186,880.7314 407.95577,933.96369 424.59179,978.70659 C 464.1333,957.53422 491.02924,915.82718 491.02924,867.83159 C 491.02924,820.08594 464.42845,778.57318 425.21679,757.30034 C 417.52626,657.93545 334.46072,579.70659 233.12304,579.70659 L 233.12304,579.70659 z"
         id="path4442"
         style="fill:url(#linearGradient2416);fill-opacity:1;stroke:none" />
      <g
         id="text4476"
         style="font-size:36px;font-style:normal;font-variant:normal;font-weight:normal;font-stretch:normal;text-align:start;line-height:125%;writing-mode:lr-tb;text-anchor:start;fill:#ffffff;fill-opacity:1;stroke:none;font-family:DIN 1451 Std;-inkscape-font-specification:DIN 1451 Std">
        <path
           d="M 176.53837,916.16425 L 180.21037,916.16425 L 180.21037,914.50825 C 181.14637,915.55224 181.86637,916.38025 183.70237,916.38025 C 185.17837,916.38025 186.25837,915.84024 186.90637,914.65225 C 187.33837,913.86025 187.51837,912.74424 187.51837,910.72825 L 187.51837,903.78025 C 187.51837,901.15225 187.41037,900.10824 186.94237,899.35225 C 186.33037,898.38025 185.43037,897.69625 183.66637,897.69625 C 182.22637,897.69625 181.07437,898.38025 180.28237,899.56825 L 180.21037,899.56825 L 180.21037,890.53225 L 176.53837,890.53225 L 176.53837,916.16425 M 183.84637,910.22425 C 183.84637,911.70024 183.30637,912.70825 182.04637,912.70825 C 180.93037,912.70825 180.21037,911.77224 180.21037,910.44025 L 180.21037,903.34825 C 180.21037,902.19625 181.00237,901.36825 182.04637,901.36825 C 183.45037,901.36825 183.84637,902.37625 183.84637,903.52825 L 183.84637,910.22425"
           id="path4664" />
        <path
           d="M 188.56068,897.91225 L 193.56468,915.33625 C 192.73668,919.58424 192.26868,920.08825 190.79268,920.08825 L 189.96468,920.08825 L 189.96468,923.54425 L 190.97268,923.54425 C 193.16868,923.54425 195.25668,922.60824 196.04868,919.33225 L 201.30468,897.91225 L 197.52468,897.91225 L 195.04068,909.28825 L 194.96868,909.28825 L 192.44868,897.91225 L 188.56068,897.91225"
           id="path4666" />
        <path
           d="M 209.44462,910.11625 C 209.44462,914.29224 212.61262,916.38025 215.60062,916.38025 C 218.58861,916.38025 221.75662,914.29224 221.75662,910.11625 L 221.75662,896.58025 C 221.75662,892.40425 218.58861,890.31625 215.60062,890.31625 C 212.61262,890.31625 209.44462,892.40425 209.44462,896.58025 L 209.44462,910.11625 M 213.11662,896.58025 C 213.11662,894.81625 214.26862,893.98825 215.60062,893.98825 C 216.93262,893.98825 218.08462,894.81625 218.08462,896.58025 L 218.08462,910.11625 C 218.08462,911.88024 216.93262,912.70825 215.60062,912.70825 C 214.26862,912.70825 213.11662,911.88024 213.11662,910.11625 L 213.11662,896.58025"
           id="path4668" />
        <path
           d="M 225.24074,916.16425 L 228.91274,916.16425 L 228.91274,900.79225 L 231.64874,900.79225 L 231.64874,897.91225 L 228.91274,897.91225 L 228.91274,895.24825 C 228.91274,894.45625 229.30874,893.98825 229.99274,893.98825 L 231.64874,893.98825 L 231.64874,890.53225 L 229.95674,890.53225 C 227.58074,890.53225 225.24074,891.90025 225.24074,895.42825 L 225.24074,897.91225 L 223.44074,897.91225 L 223.44074,900.79225 L 225.24074,900.79225 L 225.24074,916.16425 M 232.72874,916.16425 L 236.40074,916.16425 L 236.40074,897.91225 L 232.72874,897.91225 L 232.72874,916.16425 M 232.72874,894.20425 L 236.40074,894.20425 L 236.40074,890.53225 L 232.72874,890.53225 L 232.72874,894.20425"
           id="path4670" />
        <path
           d="M 246.29343,916.16425 L 257.23743,916.16425 L 257.23743,912.49225 L 249.96543,912.49225 L 249.96543,890.53225 L 246.29343,890.53225 L 246.29343,916.16425"
           id="path4672" />
        <path
           d="M 266.31449,916.16425 L 269.98649,916.16425 L 269.98649,903.45625 C 269.98649,899.64025 267.53849,897.69625 264.47849,897.69625 C 262.82249,897.69625 261.45449,898.27225 260.48249,899.24425 C 259.51049,900.21624 258.93449,901.58425 258.82649,903.20425 L 262.39049,903.20425 C 262.60649,902.01625 263.54249,901.36825 264.47849,901.36825 C 265.84649,901.36825 266.31449,902.30425 266.31449,903.52825 L 266.31449,905.43625 C 265.55849,905.40025 265.05449,905.32825 264.55049,905.32825 C 259.9425,905.32825 258.75449,907.34425 258.75449,911.52025 C 258.75449,915.55224 261.02249,916.38025 262.71449,916.38025 C 264.47849,916.38025 265.27049,915.62424 266.24249,914.29225 L 266.31449,914.29225 L 266.31449,916.16425 M 266.31449,910.80025 C 266.31449,912.27624 265.55849,913.14025 264.33449,913.14025 C 263.14649,913.14025 262.42649,912.20424 262.42649,910.80025 C 262.42649,908.85625 263.72249,908.20825 265.30649,908.20825 C 265.63049,908.20825 265.91849,908.24425 266.31449,908.31625 L 266.31449,910.80025"
           id="path4674" />
        <path
           d="M 272.65555,916.16425 L 276.32755,916.16425 L 276.32755,914.50825 C 277.26355,915.55224 277.98356,916.38025 279.81955,916.38025 C 281.29555,916.38025 282.37556,915.84024 283.02355,914.65225 C 283.45555,913.86025 283.63555,912.74424 283.63555,910.72825 L 283.63555,903.78025 C 283.63555,901.15225 283.52755,900.10824 283.05955,899.35225 C 282.44756,898.38025 281.54755,897.69625 279.78355,897.69625 C 278.34356,897.69625 277.19155,898.38025 276.39955,899.56825 L 276.32755,899.56825 L 276.32755,890.53225 L 272.65555,890.53225 L 272.65555,916.16425 M 279.96355,910.22425 C 279.96355,911.70024 279.42355,912.70825 278.16355,912.70825 C 277.04756,912.70825 276.32755,911.77224 276.32755,910.44025 L 276.32755,903.34825 C 276.32755,902.19625 277.11956,901.36825 278.16355,901.36825 C 279.56755,901.36825 279.96355,902.37625 279.96355,903.52825 L 279.96355,910.22425"
           id="path4676" />
        <path
           d="M 296.76374,903.02425 C 296.72774,900.00025 294.56774,897.69625 291.57974,897.69625 C 288.62775,897.69625 286.17974,899.92825 286.17974,903.02425 C 286.17974,905.47224 287.58374,907.20025 289.88774,908.06425 L 291.65174,908.71225 C 293.05574,909.25225 293.48774,909.93625 293.48774,910.94425 C 293.48774,912.16824 292.47974,912.92425 291.43574,912.92425 C 290.06774,912.92425 289.59974,911.88024 289.45574,910.87225 L 285.99974,910.87225 C 286.14374,914.47224 288.59175,916.38025 291.47174,916.38025 C 294.63974,916.38025 296.94374,913.89624 296.94374,910.87225 C 296.94374,908.71225 296.07974,906.76824 293.34374,905.72425 L 291.18374,904.86025 C 289.81574,904.32025 289.63574,903.67224 289.63574,902.98825 C 289.63574,902.05225 290.28374,901.15225 291.43574,901.15225 C 292.40774,901.15225 293.27174,901.80025 293.30774,903.02425 L 296.76374,903.02425"
           id="path4678" />
      </g>
    </g>
  </g>
</svg>
