<?xml version="1.0" encoding="UTF-8" standalone="no"?>
<!-- Created with Inkscape (http://www.inkscape.org/) -->

<svg
   xmlns:dc="http://purl.org/dc/elements/1.1/"
   xmlns:cc="http://creativecommons.org/ns#"
   xmlns:rdf="http://www.w3.org/1999/02/22-rdf-syntax-ns#"
   xmlns:svg="http://www.w3.org/2000/svg"
   xmlns="http://www.w3.org/2000/svg"
   xmlns:xlink="http://www.w3.org/1999/xlink"
   xmlns:sodipodi="http://sodipodi.sourceforge.net/DTD/sodipodi-0.dtd"
   xmlns:inkscape="http://www.inkscape.org/namespaces/inkscape"
   width="744.09448819"
   height="1052.3622047"
   id="svg2"
   version="1.1"
   inkscape:version="0.48.1 "
   sodipodi:docname="graphics.svg">
  <defs
     id="defs4" />
  <sodipodi:namedview
     id="base"
     pagecolor="#ffffff"
     bordercolor="#666666"
     borderopacity="1.0"
     inkscape:pageopacity="0.0"
     inkscape:pageshadow="2"
     inkscape:zoom="7.919596"
     inkscape:cx="294.05981"
     inkscape:cy="708.8898"
     inkscape:document-units="px"
     inkscape:current-layer="bug1"
     showgrid="false"
     inkscape:window-width="1024"
     inkscape:window-height="718"
     inkscape:window-x="-8"
     inkscape:window-y="-8"
     inkscape:window-maximized="1" />
  <metadata
     id="metadata7">
    <rdf:RDF>
      <cc:Work
         rdf:about="">
        <dc:format>image/svg+xml</dc:format>
        <dc:type
           rdf:resource="http://purl.org/dc/dcmitype/StillImage" />
        <dc:title />
      </cc:Work>
    </rdf:RDF>
  </metadata>
  <g
     inkscape:label="Layer 1"
     inkscape:groupmode="layer"
     id="layer1">
    <g
       id="grass">
      <path
         sodipodi:nodetypes="cccccccccccccccc"
         inkscape:connector-curvature="0"
         id="path2985"
         d="M 46.857143,69.369365 C 47.324966,132.22014 43.702611,223.23804 49.285714,270.46673 55.86704,152.98685 68.512481,97.582847 76.857143,36.647896 72.506545,118.13902 61.725532,236.04017 68.571429,283.69498 72.402799,179.51366 84.820374,146.98208 94.714286,92.872956 91.742505,159.39126 84.386554,227.55522 88.571429,263.24407 94.699516,172.15062 100.37892,110.58305 109.35715,46.937202 107.57767,117.74194 104.9196,205.75439 108.57143,259.97192 112.72654,178.77832 123.55332,117.99695 131.5,73.712941 c -4.39651,74.983769 -6.60537,147.177699 -0.78572,205.073829 -0.0471,-87.86646 7.46291,-152.91561 16.85715,-212.689552 -4.66042,75.481352 -6.34133,159.862612 0.28571,207.781322 4.13141,-99.94352 12.54452,-154.75016 25.07143,-212.424179 -6.69047,147.821889 -14.78632,296.142119 -6.49999,366.050679 l -132.857151,0 C 31.212187,328.59486 29.646036,175.21757 46.857143,69.369365 z"
         style="fill:#008000;stroke:none" />
      <path
         sodipodi:nodetypes="cccccccccccccccc"
         inkscape:connector-curvature="0"
         id="path2985-6"
         d="m 45.543056,95.13752 c -4.53218,69.80409 -4.225963,176.91338 4.571433,228.23226 3.724177,-123.20615 15.31614,-198.57268 23.6608,-259.507631 -6.8506,82.309171 -17.649559,200.809301 -4.375097,261.552701 5.617085,-87.41156 10.090862,-144.95669 22.484772,-209.64841 -9.400352,86.15118 -8.812502,166.18822 -4.627632,201.87707 8.98523,-81.277 12.373849,-177.30362 19.566368,-241.306617 -1.77948,70.804757 -5.71818,168.683257 2.21936,246.623857 2.72654,-70.55913 12.18603,-180.35252 20.13271,-224.636536 -8.68222,94.662556 -4.52379,178.601946 4.153,225.863596 -0.0471,-87.86646 1.51402,-167.05332 10.90826,-226.827259 -4.66042,75.481349 -4.77162,167.740269 5.42685,227.111489 3.05998,-109.22924 7.36376,-177.58412 20.24783,-242.827959 -9.90476,140.429629 -9.51213,288.701799 -0.51151,347.289529 l -138.571434,0 c -1.64496,-81.8591 6.78889,-257.2336 14.71429,-333.79609 z"
         style="fill:#00ff00;stroke:none" />
    </g>
    <g
       id="flower1"
       transform="matrix(0.78903549,0,0,0.78903549,46.5135,-359.29645)">
      <path
         style="fill:#5e2c63;fill-opacity:1;fill-rule:evenodd;stroke:none"
         d="m 344.78503,575.56421 c -17.76978,23.34176 -37.9976,-17.41215 -37.9976,-17.41215 0,0 19.20909,42.09162 -9.12001,43.3596 -28.3291,1.26798 -8.32635,-43.50136 -8.32635,-43.50136 0,0 -27.19299,34.07506 -38.40464,12.00128 -11.21164,-22.07378 29.80424,-27.18114 29.80424,-27.18114 0,0 -43.27379,-6.27226 -29.65749,-27.84364 13.61631,-21.57138 38.50343,12.80554 38.50343,12.80554 0,0 -23.00327,-42.25119 9.99867,-41.68204 33.00194,0.56915 7.44768,41.8238 7.44768,41.8238 0,0 27.05999,-37.86923 40.93426,-11.17579 13.87427,26.69344 -32.33385,26.35565 -32.33385,26.35565 0,0 46.92144,9.10849 29.15166,32.45025 z"
         id="path3163"
         inkscape:connector-curvature="0"
         sodipodi:nodetypes="zczczczczczcz" />
      <path
         sodipodi:nodetypes="zzzz"
         inkscape:connector-curvature="0"
         id="path3836-1"
         d="m 298.8061,532.05779 c 8.73271,0.0397 14.12942,12.11092 8.07394,17.94211 -6.05545,5.8312 -15.69935,4.93407 -18.83922,-1.56994 -3.13986,-6.50402 2.03257,-16.41185 10.76528,-16.37217 z"
         style="fill:#deca21;fill-opacity:1;stroke:none" />
      <path
         style="fill:#b63dc2;fill-opacity:1;stroke:none"
         d="m 293.34087,527.47514 c 0,0 -16.1403,-36.91387 5.48521,-36.26658 21.62552,0.6473 5.15277,36.79534 5.15277,36.79534 l -0.99892,-8.88971 -2.76388,7.46098 -1.38997,-7.674 -1.91717,7.56213 -2.92899,-7.56213 z"
         id="path3952"
         inkscape:connector-curvature="0"
         sodipodi:nodetypes="czccccccc" />
      <use
         x="0"
         y="0"
         width="1"
         height="1"
         xlink:href="#path3952"
         id="use3821"
         transform="matrix(0.45710841,0.88941099,-0.88941099,0.45710841,644.1665,28.285256)" />
      <use
         x="0"
         y="0"
         xlink:href="#path3952"
         id="use3823"
         transform="matrix(-0.60809631,0.79386327,-0.79386327,-0.60809631,913.16756,634.73835)"
         width="600"
         height="600"
         inkscape:transform-center-x="-3.0304576"
         inkscape:transform-center-y="1.2626907" />
      <use
         x="0"
         y="0"
         xlink:href="#path3952"
         id="use3825"
         transform="matrix(1,0,0,-1.0017536,-1.0650903,1088.4694)"
         width="600"
         height="600" />
      <use
         x="0"
         y="0"
         xlink:href="#path3952"
         id="use3829"
         transform="matrix(-0.47550091,-0.82602173,0.81756983,-0.48041656,-3.9178069,1050.9741)"
         width="600"
         height="600" />
      <use
         x="0"
         y="0"
         xlink:href="#path3952"
         id="use3827"
         transform="matrix(0.46541041,-0.85242804,0.82923374,0.4784283,-291.30341,537.3001)"
         width="600"
         height="600" />
    </g>
    <g
       id="flower2">
      <path
         style="fill:#ad3a3a;fill-opacity:1;fill-rule:evenodd;stroke:none"
         d="m 414.83671,86.854296 c -9.48281,12.456278 -19.23775,-7.355011 -19.23775,-7.355011 0,0 9.42958,20.088594 -5.4699,19.673859 -14.89948,-0.414736 -5.70008,-19.534597 -5.70008,-19.534597 0,0 -13.69129,16.032219 -19.67437,4.252598 -5.98306,-11.779622 13.97252,-14.427972 13.97252,-14.427972 0,0 -21.16051,-3.424354 -13.89421,-14.935875 7.26632,-11.511512 19.85272,5.290193 19.85272,5.290193 0,0 -11.58109,-21.0038 6.03032,-20.700071 17.61141,0.30372 5.05486,21.393098 5.05486,21.393098 0,0 13.36008,-19.282755 20.76406,-5.037858 7.40396,14.244887 -15.24078,14.486833 -15.24078,14.486833 0,0 23.02541,4.438526 13.54261,16.894803 z"
         id="path3163-1-6"
         inkscape:connector-curvature="0"
         sodipodi:nodetypes="zczczczczczcz" />
      <path
         sodipodi:nodetypes="zzzz"
         inkscape:connector-curvature="0"
         id="path3836-1-0-1"
         d="m 390.65841,62.418554 c 5.63193,0.02558 9.11239,8.247173 5.20708,12.007841 -3.90531,3.760668 -10.12488,2.745537 -12.14985,-1.449046 -2.02498,-4.194601 1.31085,-10.584388 6.94277,-10.558795 z"
         style="fill:#f3dd2a;fill-opacity:1;stroke:none" />
      <path
         style="fill:#e96262;fill-opacity:1;stroke:none"
         d="m 387.38365,61.322771 c 0,0 -8.83153,-18.493907 3.14545,-18.611907 11.97696,-0.118008 2.53149,18.762976 2.53149,18.762976 -1.31497,-1.096915 -4.48983,-0.729536 -5.67694,-0.151069 z"
         id="path3952-89-5"
         inkscape:connector-curvature="0"
         sodipodi:nodetypes="czcc" />
      <use
         x="0"
         y="0"
         width="1"
         height="1"
         xlink:href="#path3952-89-5"
         id="use3821-4-4"
         transform="matrix(0.4928367,0.87012183,-0.87012183,0.4928367,258.3962,-304.06265)"
         inkscape:transform-center-x="1.5152288" />
      <use
         x="0"
         y="0"
         xlink:href="#path3952-89-5"
         id="use3823-4-0"
         transform="matrix(-0.52002438,0.85415143,-0.85415143,-0.52002438,652.7354,-227.0888)"
         width="600"
         height="600"
         inkscape:transform-center-x="-2.5774776"
         inkscape:transform-center-y="0.9559256" />
      <use
         x="0"
         y="0"
         xlink:href="#path3952-89-5"
         id="use3825-1-7"
         transform="matrix(1,0,0,-1.0017536,-0.13182614,139.66616)"
         width="600"
         height="600" />
      <use
         x="0"
         y="0"
         xlink:href="#path3952-89-5"
         id="use3829-8-4"
         transform="matrix(-0.47550091,-0.82602173,0.81756983,-0.48041656,518.62419,425.404)"
         width="600"
         height="600" />
      <use
         x="0"
         y="0"
         xlink:href="#path3952-89-5"
         id="use3827-3-6"
         transform="matrix(0.46541041,-0.85242804,0.82923374,0.4784283,150.62826,368.60675)"
         width="600"
         height="600" />
    </g>
    <g
       id="leaf1">
      <path
         sodipodi:nodetypes="cczczzc"
         inkscape:connector-curvature="0"
         id="path3059"
         d="m 512.01694,295.71232 c -14.86885,-6.38644 -20.90654,-19.17849 -25.27168,-32.85319 -4.36514,-13.67469 -3.7323,-29.16498 2.10598,-42.54064 5.83827,-13.37567 14.17555,-20.24805 29.90482,-32.432 13.83389,12.45593 20.34317,21.7944 24.42928,35.38035 4.08612,13.58595 4.71056,29.08368 -0.84238,42.11947 -5.55295,13.03579 -12.0876,24.91899 -30.32602,30.32601 z"
         style="fill:#1b6f1b;fill-opacity:1;stroke:none" />
      <path
         sodipodi:nodetypes="cccccccccccccccc"
         inkscape:connector-curvature="0"
         id="path3831"
         d="m 510.75336,302.24083 -0.63179,-29.69421 c -7.60227,-3.87315 -13.78745,-10.10809 -19.79615,-16.6372 6.25359,5.03966 12.30336,10.58889 19.58555,13.05705 -0.0819,-10.8632 -0.50576,-20.18782 0.42118,-35.59096 -7.53309,-5.96692 -10.99283,-11.93385 -14.11001,-17.90077 4.2248,5.60308 8.33608,11.31966 14.74182,14.74182 1.43048,-15.03097 4.35346,-26.57946 7.37091,-37.90752 -1.22251,12.79163 -3.27782,26.02367 -3.58016,38.3287 6.87371,-2.50654 12.52958,-8.05773 18.32196,-13.26763 -5.28623,6.4317 -10.82164,12.55192 -18.32196,16.216 -1.57954,12.61248 -0.95393,23.75485 -1.05299,35.38034 8.57679,-1.46937 16.33259,-7.86472 24.4293,-12.21463 -7.83632,5.56067 -14.44642,12.65408 -24.21869,15.79478 l -0.42122,29.90483 z"
         style="fill:#134c13;fill-opacity:1;stroke:none" />
    </g>
    <g
       id="flower3"
       transform="translate(-1082.2298,99.219198)">
      <path
         style="fill:#cccccc;fill-opacity:1;fill-rule:evenodd;stroke:none"
         d="m 1691.2491,-50.478516 c 1.9474,19.306615 -58.7328,15.766387 -58.7328,15.766387 0,0 59.6061,16.874298 51.4655,33.88737415 -8.1405,17.01307585 -56.8862,-23.67682015 -56.8862,-23.67682015 0.5367,1.146104 37.356,48.937467 19.3508,56.25879 -18.0051,7.321323 -30.9786,-50.454474 -31.2738,-52.541422 -0.032,1.907083 -2.4006,60.320345 -21.3471,55.487956 -18.9464,-4.832378 7.5842,-53.80931 8.9134,-59.00441 -2.7747,2.790535 -43.7259,40.606532 -53.0601,25.0085249 -9.3342,-15.5980069 45.3668,-34.4123199 46.9135,-35.5835399 -3.0381,-0.570457 -59.0994,-1.575097 -55.1268,-20.146634 3.9727,-18.571538 57.7643,7.325787 57.7643,7.325787 0,0 -45.3719,-36.220626 -32.2829,-48.218308 13.089,-11.997679 41.6493,40.411932 41.6493,40.411932 0,0 -10.8802,-58.834431 8.4326,-58.268511 19.3128,0.56593 4.48,59.364201 4.48,59.364201 0,0 29.623,-52.304211 43.4412,-41.755458 13.8182,10.548755 -33.9894,49.423146 -33.9894,49.423146 0,0 58.3411,-23.04561 60.2885,-3.738995 z"
         id="path3163-0"
         inkscape:connector-curvature="0"
         sodipodi:nodetypes="zczczczczczczczczcz" />
      <path
         sodipodi:nodetypes="zzzz"
         inkscape:connector-curvature="0"
         id="path3836-1-9"
         d="m 1615.3539,-48.731679 c 8.6832,0.03948 14.0493,12.042238 8.0282,17.840358 -6.0211,5.798131 -15.6103,4.906088 -18.7324,-1.561037 -3.1221,-6.467134 2.021,-16.318776 10.7042,-16.279321 z"
         style="fill:#e4e41b;fill-opacity:1;stroke:none" />
      <path
         style="fill:#ffffff;fill-opacity:1;stroke:none"
         d="m 1611.0995,-50.94246 c 0,0 -8.6773,-61.10361 5.3995,-60.23495 14.0768,0.86865 1.8587,60.100795 1.8587,60.100795 l 2.5512,-34.856089 -4.0687,34.500865 1.0971,-34.869413 -2.5548,34.739594 -0.2747,-34.980659 -1.344,34.978143 -1.2565,-35.002335 -0.1368,35.080907 -2.2654,-34.667873 z"
         id="path3952-8"
         inkscape:connector-curvature="0"
         sodipodi:nodetypes="czccccccccccc" />
      <use
         height="1052.3622"
         width="744.09448"
         transform="matrix(0.77735637,0.62906048,-0.62906048,0.77735637,336.58589,-1023.8696)"
         id="use3854"
         xlink:href="#path3952-8"
         y="0"
         x="0" />
      <use
         height="1052.3622"
         width="744.09448"
         transform="matrix(0.19075009,0.98163863,-0.98163863,0.19075009,1270.4367,-1615.6182)"
         id="use3856"
         xlink:href="#path3952-8"
         y="0"
         x="0" />
      <use
         height="1052.3622"
         width="744.09448"
         transform="matrix(-0.45179146,0.89212357,-0.89212357,-0.45179146,2311.3652,-1495.1639)"
         id="use3858"
         xlink:href="#path3952-8"
         y="0"
         x="0" />
      <use
         height="1052.3622"
         width="744.09448"
         transform="matrix(-0.89264291,0.45076451,-0.45076451,-0.89264291,3037.871,-798.90593)"
         id="use3860"
         xlink:href="#path3952-8"
         y="0"
         x="0" />
      <use
         height="1052.3622"
         width="744.09448"
         transform="matrix(-0.96805503,-0.25073783,0.25073783,-0.96805503,3186.843,330.06746)"
         id="use3862"
         xlink:href="#path3952-8"
         y="0"
         x="0" />
      <use
         height="1052.3622"
         width="744.09448"
         transform="matrix(-0.53940479,-0.84204659,0.84204659,-0.53940479,2517.3636,1300.4815)"
         id="use3864"
         xlink:href="#path3952-8"
         y="0"
         x="0" />
      <use
         height="1052.3622"
         width="744.09448"
         transform="matrix(0.22085887,-0.97530577,0.97530577,0.22085887,1295.6092,1546.2357)"
         id="use3866"
         xlink:href="#path3952-8"
         y="0"
         x="0" />
      <use
         height="1052.3622"
         width="744.09448"
         transform="matrix(0.75468578,-0.65608641,0.65608641,0.75468578,421.7391,1050.3172)"
         id="use3868"
         xlink:href="#path3952-8"
         y="0"
         x="0" />
    </g>
    <g
       id="flower4">
      <path
         style="fill:#69316f;fill-opacity:1;fill-rule:evenodd;stroke:none"
         d="m 316.03424,213.36252 c -10.97117,14.41134 -22.56709,-9.23251 -22.56709,-9.23251 0,0 11.21949,23.96468 -6.01852,23.48485 -17.23802,-0.47983 -6.18153,-23.84022 -6.18153,-23.84022 0,0 -16.2534,19.78813 -23.17554,6.15965 -6.92213,-13.62848 17.50845,-16.6925 17.50845,-16.6925 0,0 -25.82463,-3.96182 -17.41785,-17.28012 8.4068,-13.31829 22.96868,6.12051 22.96868,6.12051 0,0 -13.39879,-24.30043 6.9768,-23.94903 20.37559,0.35139 5.84824,24.75083 5.84824,24.75083 0,0 15.457,-22.30926 24.02306,-5.82857 8.56605,16.48068 -18.35597,16.4507 -18.35597,16.4507 0,0 27.36244,5.44507 16.39127,19.85641 z"
         id="path3163-1"
         inkscape:connector-curvature="0"
         sodipodi:nodetypes="zczczczczczcz" />
      <path
         sodipodi:nodetypes="zzzz"
         inkscape:connector-curvature="0"
         id="path3836-1-0"
         d="m 288.12232,184.98819 c 6.51588,0.0296 10.54262,9.5416 6.02435,13.89252 -4.51826,4.35092 -11.71402,3.17646 -14.05682,-1.67648 -2.3428,-4.85296 1.5166,-12.24565 8.03247,-12.21604 z"
         style="fill:#f0d90f;fill-opacity:1;stroke:none" />
      <path
         style="fill:#cd77d4;fill-opacity:1;stroke:none"
         d="m 284.27231,183.82372 c 0,0 -10.21767,-21.3966 3.63914,-21.53312 13.8568,-0.13653 2.92882,21.7079 2.92882,21.7079 -1.52136,-1.26908 -5.19453,-0.84404 -6.56796,-0.17478 z"
         id="path3952-89"
         inkscape:connector-curvature="0"
         sodipodi:nodetypes="czcc" />
      <use
         x="0"
         y="0"
         width="1"
         height="1"
         xlink:href="#path3952-89"
         id="use3821-4"
         transform="matrix(0.4928367,0.87012183,-0.87012183,0.4928367,313.83135,-152.01912)"
         inkscape:transform-center-x="1.5152288" />
      <use
         x="0"
         y="0"
         xlink:href="#path3952-89"
         id="use3823-4"
         transform="matrix(-0.5361333,0.84413335,-0.84413335,-0.5361333,605.02019,54.490879)"
         width="600"
         height="600"
         inkscape:transform-center-x="-2.5735417"
         inkscape:transform-center-y="0.98568693" />
      <use
         x="0"
         y="0"
         xlink:href="#path3952-89"
         id="use3825-1"
         transform="matrix(1,0,0,-1.0017536,-0.15251678,387.53745)"
         width="600"
         height="600" />
      <use
         x="0"
         y="0"
         xlink:href="#path3952-89"
         id="use3829-8"
         transform="matrix(-0.47550091,-0.82602173,0.81756983,-0.48041656,265.88683,523.88101)"
         width="600"
         height="600" />
      <use
         x="0"
         y="0"
         xlink:href="#path3952-89"
         id="use3827-3"
         transform="matrix(0.46541041,-0.85242804,0.82923374,0.4784283,-6.9567538,345.61021)"
         width="600"
         height="600" />
    </g>
    <g
       id="flower5">
      <path
         style="fill:#862a2a;fill-opacity:1;fill-rule:evenodd;stroke:none"
         d="m 422.11085,226.80892 c -14.80765,20.02165 -31.01671,-15.46876 -31.01671,-15.46876 0,0 18.37627,36.01315 -7.83495,34.94612 -26.21122,-1.06703 -5.93084,-35.05797 -5.93084,-35.05797 0,0 -21.55116,30.08943 -32.16369,10.69154 -10.61253,-19.39789 25.37767,-22.66899 25.37767,-22.66899 0,0 -36.85591,-2.01463 -23.64643,-22.90994 13.20948,-20.89532 30.62619,11.04434 30.62619,11.04434 0,0 -17.28734,-33.36215 7.81885,-33.54712 25.1062,-0.18498 5.94693,33.65898 5.94693,33.65898 0,0 20.69576,-31.04355 32.82601,-9.11948 12.13024,21.92408 -26.03998,21.09693 -26.03998,21.09693 0,0 38.84458,7.31269 24.03695,27.33435 z"
         id="path3163-3"
         inkscape:connector-curvature="0"
         sodipodi:nodetypes="zczczczczczcz" />
      <path
         sodipodi:nodetypes="zzzz"
         inkscape:connector-curvature="0"
         id="path3836-1-7"
         d="m 384.79659,190.75085 c 6.89042,0.0313 11.14862,9.55595 6.37063,14.15696 -4.77797,4.60103 -12.38735,3.89317 -14.86482,-1.23873 -2.47746,-5.1319 1.60377,-12.94953 8.49419,-12.91823 z"
         style="fill:#deca21;fill-opacity:1;stroke:none" />
      <path
         style="fill:#cc3b3b;fill-opacity:1;stroke:none"
         d="m 380.34343,187.20543 c 0,0 -13.71029,-28.83136 4.18713,-29.28882 17.89742,-0.45747 4.20661,29.70603 4.20661,29.70603 l -1.28132,-9.59454 -2.92953,8.83251 -2.41056,-8.85969 z"
         id="path3952-9"
         inkscape:connector-curvature="0"
         sodipodi:nodetypes="czccccc" />
      <use
         x="0"
         y="0"
         xlink:href="#path3952-9"
         id="use3821-6"
         transform="matrix(0.45710841,0.88941099,-0.88941099,0.45710841,385.44634,-234.58467)"
         width="600"
         height="600" />
      <use
         x="0"
         y="0"
         xlink:href="#path3952-9"
         id="use3823-8"
         transform="matrix(-0.58714583,0.80948119,-0.80948119,-0.58714583,772.68523,4.8756898)"
         width="600"
         height="600"
         inkscape:transform-center-x="-3.0076456"
         inkscape:transform-center-y="1.241615" />
      <use
         x="0"
         y="0"
         xlink:href="#path3952-9"
         id="use3825-8"
         transform="matrix(1,0,0,-1.0017536,-0.34224016,399.91753)"
         width="600"
         height="600" />
      <use
         x="0"
         y="0"
         xlink:href="#path3952-9"
         id="use3827-2"
         transform="matrix(0.46541041,-0.85242804,0.82923374,0.4784283,39.765697,431.51241)"
         width="600"
         height="600" />
      <use
         x="0"
         y="0"
         xlink:href="#path3952-9"
         id="use3829-7"
         transform="matrix(-0.47550091,-0.82602173,0.81756983,-0.48041656,404.07349,613.24959)"
         width="600"
         height="600" />
    </g>
    <g
       id="leaf2">
      <path
         sodipodi:nodetypes="cczczzc"
         inkscape:connector-curvature="0"
         id="path3059-9"
         d="m 632.51119,291.67707 c -16.57921,-5.48511 -23.31141,-16.47178 -28.17867,-28.21655 -4.86727,-11.74475 -4.16163,-25.04887 2.34822,-36.5368 6.50986,-11.48792 18.13742,-14.47631 33.34476,-27.8548 11.92832,13.02927 22.68324,18.71851 27.23938,30.38705 4.55614,11.66854 5.25241,24.97904 -0.93928,36.17506 -6.19169,11.19602 -13.47803,21.40213 -33.81441,26.04604 z"
         style="fill:#208220;fill-opacity:1;stroke:none" />
      <path
         sodipodi:nodetypes="cccccccccccccccc"
         inkscape:connector-curvature="0"
         id="path3831-5"
         d="m 631.10225,297.2842 -0.70446,-25.50341 c -8.47675,-3.32652 -15.37341,-8.68152 -22.07329,-14.28915 6.97294,4.3284 13.71861,9.09445 21.83847,11.21427 -0.0913,-9.33005 -0.56394,-17.33866 0.46963,-30.56793 -8.39962,-5.12479 -12.25734,-10.24959 -15.73308,-15.3744 4.71077,4.81231 9.29498,9.7221 16.43756,12.66128 1.59504,-12.90961 4.85424,-22.82824 8.21879,-32.55755 -1.36313,10.98632 -3.65487,22.35089 -3.99199,32.9193 7.6644,-2.1528 13.97086,-6.92053 20.42953,-11.39515 -5.8943,5.52398 -12.06645,10.78044 -20.42953,13.9274 -1.76124,10.83245 -1.06366,20.40229 -1.17411,30.38704 9.56338,-1.26199 18.21131,-6.75476 27.23938,-10.49075 -8.73771,4.77588 -16.10818,10.86817 -27.00455,13.56563 l -0.46966,25.6843 z"
         style="fill:#124d12;fill-opacity:1;stroke:none" />
    </g>
    <g
       id="bug1"
       transform="matrix(0.6786697,0,0,0.6786697,92.076139,113.62325)">
      <path
         sodipodi:nodetypes="ccccc"
         inkscape:connector-curvature="0"
         id="path3828"
         d="m 279.24081,333.98838 1.94486,-2.2973 0.79605,-2.48563 -0.059,2.77299 -2.03138,2.78275"
         style="fill:#000000;fill-opacity:1;stroke:none" />
      <use
         inkscape:transform-center-x="-0.57438647"
         inkscape:transform-center-y="-2.1472654"
         height="1052.3622"
         width="744.09448"
         transform="matrix(0.84057276,0.54169867,-0.54169867,0.84057276,227.85071,-89.963601)"
         id="use3830"
         xlink:href="#path3828"
         y="0"
         x="0" />
      <use
         height="1052.3622"
         width="744.09448"
         transform="matrix(-0.32477496,0.94579132,-0.94579132,-0.32477496,686.87014,193.59639)"
         id="use3834"
         xlink:href="#path3828"
         y="0"
         x="0" />
      <use
         height="1052.3622"
         width="744.09448"
         transform="matrix(-1.1652102,0,0,1,592.49321,1.5152288)"
         id="use3836"
         xlink:href="#path3828"
         y="0"
         x="0" />
      <use
         height="1052.3622"
         width="744.09448"
         transform="matrix(-1.2353601,0.74307042,0.51544126,0.85692492,438.53478,-152.05029)"
         id="use3838"
         xlink:href="#path3828"
         y="0"
         x="0" />
      <use
         height="1052.3622"
         width="744.09448"
         transform="matrix(0.06473742,1.4862791,0.99905275,-0.04351545,-85.63862,-51.444036)"
         id="use3840"
         xlink:href="#path3828"
         y="0"
         x="0" />
      <path
         sodipodi:nodetypes="zccz"
         inkscape:connector-curvature="0"
         id="path5308"
         d="m 273.45547,353.59659 c -11.41321,0.3641 -12.86708,-15.75406 -4.88117,-20.84182 2.22172,-7.95257 8.10129,-6.30848 9.74439,-0.23722 9.03683,7.05584 6.55,20.71495 -4.86322,21.07904 z"
         style="fill:#000000;fill-opacity:1;stroke:none" />
      <path
         sodipodi:nodetypes="ccccc"
         inkscape:connector-curvature="0"
         id="path5310"
         d="m 277.76097,333.70146 c 9.24584,8.66509 2.19773,18.31781 -3.89369,18.86162 l -0.19212,-15.46838 1.34323,-1.87538 c 0.742,-0.0287 1.71911,-0.77147 2.74258,-1.51786 z"
         style="fill:#f21a1a;fill-opacity:1;stroke:none" />
      <path
         sodipodi:nodetypes="ccccc"
         inkscape:connector-curvature="0"
         id="path5310-9"
         d="m 269.63237,334.01396 c -9.12922,5.95216 -3.63155,18.54235 3.5076,18.54912 l 0.37432,-15.42374 -0.97382,-1.78609 c -1.07266,-0.23985 -2.0727,-0.62493 -2.9081,-1.33929 z"
         style="fill:#f21a1a;fill-opacity:1;stroke:none" />
      <path
         sodipodi:nodetypes="czcc"
         inkscape:connector-curvature="0"
         id="path3044"
         d="m 271.88795,329.04766 c 1.15026,1.14949 0.56913,2.00547 -0.16457,2.42143 -0.7337,0.41597 -1.28818,-0.86091 -1.28818,-0.86091 0.17919,-0.5597 1.09499,-1.41602 1.45275,-1.56052 z"
         style="fill:#ffffff;fill-opacity:1;stroke:none" />
      <use
         height="1052.3622"
         width="744.09448"
         transform="matrix(-1.0597651,0,0,0.9524772,563.23134,15.685505)"
         id="use3814"
         xlink:href="#path3044"
         y="0"
         x="0" />
      <path
         sodipodi:nodetypes="zzzz"
         inkscape:connector-curvature="0"
         id="path3816"
         d="m 276.39782,336.83897 c 0.40072,-0.83512 1.65616,-0.92909 2.24635,-0.0778 0.59022,0.8512 -0.23049,1.92614 -1.20755,1.90875 -0.97706,-0.0174 -1.4395,-0.9957 -1.0388,-1.83084 z"
         style="fill:#000000;fill-opacity:1;stroke:none" />
      <use
         height="1052.3622"
         width="744.09448"
         transform="translate(-1.0714286,4.9107143)"
         id="use3818"
         xlink:href="#path3816"
         y="0"
         x="0" />
      <use
         height="1052.3622"
         width="744.09448"
         transform="translate(1.6071429,4.9107142)"
         id="use3820"
         xlink:href="#use3818"
         y="0"
         x="0" />
      <use
         height="1052.3622"
         width="744.09448"
         transform="translate(-8.75,-8.8392857)"
         id="use3822"
         xlink:href="#use3820"
         y="0"
         x="0" />
      <use
         height="1052.3622"
         width="744.09448"
         transform="translate(1.4285714,4.1964287)"
         id="use3824"
         xlink:href="#use3822"
         y="0"
         x="0" />
      <use
         height="1052.3622"
         width="744.09448"
         transform="translate(-1.9642856,4.4642857)"
         id="use3826"
         xlink:href="#use3824"
         y="0"
         x="0" />
    </g>
  </g>
</svg>
